<svg width="256" height="257" viewBox="0 0 256 257" fill="none" xmlns="http://www.w3.org/2000/svg">
<path fill-rule="evenodd" clip-rule="evenodd" d="M132.565 225.825L132.567 220.848L150.714 203.829L150.862 209.291L132.565 225.825ZM132.564 213.614L132.56 208.997L150.869 191.551L150.846 197.209L132.564 213.614ZM132.55 196.219L150.859 179.634L150.779 185.176L132.571 201.689L132.55 196.219ZM132.566 183.966L150.859 167.788L150.859 173.493L132.585 189.429L132.566 183.966ZM132.571 177.604L132.575 172.45L150.82 155.531L150.86 160.834L132.571 177.604ZM132.562 165.384L132.567 160.248L150.874 143.621L150.85 149.189L132.562 165.384ZM132.562 153.402L132.563 148.485L150.859 131.403L150.86 136.781L132.562 153.402ZM132.56 141.167L132.56 136.717L150.877 119.497L150.857 124.7L132.56 141.167ZM132.562 129.383L132.567 124.131L150.859 106.464L150.884 112.435L132.562 129.383ZM132.593 111.625L150.879 95.423L150.909 100.827L132.559 117.163L132.593 111.625ZM129.896 103.222L150.87 82.9345L150.857 88.6958L132.75 105.539L129.896 103.222ZM123.532 96.3282L150.859 70.9951L150.859 76.6454L126.567 99.4819L123.532 96.3282ZM117.27 90.855L150.798 59.1077L150.887 64.6467L119.765 93.4378L117.27 90.855ZM111.185 84.6716L150.772 46.8802L150.832 52.3661L113.581 87.5127L111.185 84.6716ZM111.255 77.7139L111.297 72.4598L150.847 34.9749L150.859 41.0215L132.123 58.0765L111.255 77.7139ZM111.147 65.0587L111.137 59.5178C111.136 58.539 149.77 23.4491 150.852 23.0882L150.837 28.604L111.147 65.0587ZM111.138 47.9818L150.795 10.8869L150.849 16.3614L111.142 53.3742L111.138 47.9818ZM150.87 216.231L150.824 221.519C149.093 222.588 139.699 231.13 138.947 233.029L149.477 228.185L150.91 229.301C152.472 230.318 152.155 230.283 155.347 229.194L155.497 0.0234375C145.048 9.70624 132.054 21.3564 122.088 31.3322C119.359 34.0633 117.029 36.2278 113.93 39.2746C112.462 40.7184 106.759 45.0689 106.412 47.6039C105.395 55.035 106.439 71.5669 106.382 80.0366C100.241 76.2303 93.0742 66.809 90.3498 66.3197C90.3448 119.718 90.3392 173.116 90.334 226.515C103.863 231.188 117.824 233.41 132.094 233.878L150.87 216.231Z" fill="#09529E"/>
<path fill-rule="evenodd" clip-rule="evenodd" d="M159.925 227.042C166.419 226.439 181.001 215.915 185.314 212.057C192.936 205.238 198.276 199.196 203.976 189.819C207.013 184.823 209.034 181.836 208.984 174.958L208.975 113.734C208.945 100.337 208.976 86.9378 208.981 73.541C208.984 66.74 208.942 59.9352 208.973 53.1348C208.992 49.0616 209.792 47.0104 207.359 44.6876C205.661 43.0661 204.265 41.7281 202.003 39.5302C187.985 25.9125 174.156 13.2321 159.929 0L159.925 227.042Z" fill="#0653A1"/>
<path fill-rule="evenodd" clip-rule="evenodd" d="M159.925 227.042C166.419 226.439 181.001 215.915 185.314 212.057C192.936 205.238 198.276 199.196 203.976 189.819C207.013 184.823 209.034 181.836 208.984 174.958L208.975 113.734C208.945 100.337 208.976 86.9378 208.981 73.541C208.984 66.74 208.942 59.9352 208.973 53.1348C208.992 49.0616 209.792 47.0104 207.359 44.6876C205.661 43.0661 204.265 41.7281 202.003 39.5302C187.985 25.9125 174.156 13.2321 159.929 0L159.925 227.042Z" fill="black" fill-opacity="0.2"/>
<path fill-rule="evenodd" clip-rule="evenodd" d="M80.3509 42.9981C-23.0335 96.4354 4.5733 244.339 120.381 255.932C128.34 256.729 146.602 255.149 154.235 253.005C189.117 243.21 210.365 225.576 227.504 194.809C241.778 166.934 243.388 135.426 232.589 105.648C229.795 97.9422 221.286 81.0966 215.686 75.4396L218.87 112.182C224.688 125.846 225.013 148.49 222.414 163.841C218.865 184.806 201.986 209.663 185.253 222.068C158.088 244.182 107.722 248.174 76.7615 226.584C5.85324 179.687 20.2477 77.2713 100.113 51.7512C103.3 43.8168 95.6522 49.4136 106.195 38.2911L109.347 34.3455C102.542 34.3717 85.9119 40.5291 80.3509 42.9981Z" fill="#FECD2E"/>
<path fill-rule="evenodd" clip-rule="evenodd" d="M48.0649 184.863L48.0783 178.96L81.4898 148.692L81.5051 153.632L48.0649 184.863ZM48.0739 173.156L48.0665 167.961L81.4643 136.531L81.4693 142.641L48.0739 173.156ZM48.0751 161.227L48.0562 155.743L81.4711 124.641L81.4498 130.178L48.0751 161.227ZM48.1154 148.986L48.0446 143.929L81.4601 112.145L81.448 118.536L48.1154 148.986ZM48.063 137.188L48.1125 130.422L81.4901 100.198L81.4898 106.202L48.063 137.188ZM48.0642 124.873L48.0754 119.11L81.5008 87.9607L81.4333 94.6044L48.0642 124.873ZM48.0649 112.984L48.0552 108.374L81.4921 76.1258L81.5002 82.1147L48.0649 112.984ZM81.5202 160.553L81.537 166.096L52.0832 193.746L54.6008 197.462L81.4865 172.613L81.5316 178.183L57.5836 202.565L59.6495 204.962L81.4849 185.054L81.5128 189.852L63.4843 208.343L65.8397 210.631C71.789 205.879 75.506 200.849 81.4782 195.977L81.5079 202.594L69.9887 213.29L73.5513 216.04L81.5091 208.553L81.4356 214.539C80.0448 216.119 78.6922 217.35 76.7928 218.229C77.9872 220.385 84.0113 223.694 86.383 224.032L85.9789 65.8494L43.8631 109.123C43.4466 112.775 44.1896 145.326 44.193 152.072C44.196 158.684 43.7863 165.006 43.9151 170.783C44.0831 178.311 45.1661 184.915 49.2714 190.028L81.5202 160.553Z" fill="#0C5394"/>
</svg>
