<svg width="256" height="256" viewBox="0 0 256 256" fill="none" xmlns="http://www.w3.org/2000/svg">
<path fill-rule="evenodd" clip-rule="evenodd" d="M132.56 225.048L132.562 220.108L150.579 203.211L150.726 208.634L132.56 225.048ZM132.56 212.926L132.556 208.342L150.732 191.022L150.71 196.639L132.56 212.926ZM132.545 195.656L150.723 179.191L150.642 184.693L132.567 201.087L132.545 195.656ZM132.561 183.491L150.723 167.431L150.722 173.094L132.58 188.915L132.561 183.491ZM132.567 177.176L132.57 172.059L150.684 155.262L150.724 160.527L132.567 177.176ZM132.557 165.044L132.562 159.945L150.737 143.438L150.714 148.966L132.557 165.044ZM132.557 153.148L132.559 148.266L150.723 131.308L150.723 136.647L132.557 153.148ZM132.556 141.001L132.556 136.584L150.741 119.488L150.721 124.653L132.556 141.001ZM132.558 129.303L132.562 124.088L150.722 106.549L150.748 112.477L132.558 129.303ZM132.588 111.673L150.742 95.5877L150.772 100.953L132.555 117.171L132.588 111.673ZM129.912 103.331L150.733 83.1893L150.721 88.9091L132.745 105.631L129.912 103.331ZM123.593 96.4863L150.723 71.3361L150.723 76.9455L126.606 99.6172L123.593 96.4863ZM117.377 91.0526L150.662 59.5344L150.751 65.0335L119.853 93.6168L117.377 91.0526ZM111.335 84.9138L150.636 47.3951L150.696 52.8415L113.714 87.7344L111.335 84.9138ZM111.404 78.0064L111.447 72.7901L150.711 35.5758L150.723 41.5787L132.122 58.5106L111.404 78.0064ZM111.297 65.4424L111.288 59.9416C111.286 58.9699 149.642 24.1331 150.716 23.7748L150.701 29.2508L111.297 65.4424ZM111.288 48.4888L150.66 11.6617L150.713 17.0966L111.292 53.8423L111.288 48.4888ZM150.733 215.524L150.688 220.773C148.969 221.835 139.643 230.315 138.897 232.201L149.351 227.392L150.773 228.5C152.324 229.509 152.009 229.474 155.179 228.393L155.327 0.876587C144.954 10.4894 132.054 22.0555 122.159 31.9594C119.45 34.6708 117.137 36.8197 114.061 39.8445C112.603 41.2779 106.942 45.597 106.597 48.1136C105.587 55.4911 106.624 71.9037 106.567 80.3123C100.47 76.5334 93.3551 67.1802 90.6503 66.6944C90.6448 119.707 90.6399 172.72 90.6346 225.733C104.066 230.372 117.926 232.579 132.093 233.044L150.733 215.524Z" fill="white"/>
<path fill-rule="evenodd" clip-rule="evenodd" d="M159.723 226.257C166.17 225.658 180.647 215.21 184.929 211.379C192.496 204.61 197.797 198.612 203.456 189.302C206.471 184.343 208.478 181.377 208.428 174.549L208.419 113.767C208.389 100.467 208.421 87.1638 208.425 73.8636C208.428 67.1117 208.386 60.356 208.417 53.6047C208.436 49.5609 209.23 47.5245 206.815 45.2184C205.129 43.6086 203.744 42.2803 201.497 40.0983C187.58 26.5789 173.851 13.9899 159.727 0.853394L159.723 226.257Z" fill="white"/>
<path fill-rule="evenodd" clip-rule="evenodd" d="M80.7233 43.5413C-21.9149 96.593 5.49265 243.429 120.464 254.938C128.366 255.729 146.496 254.161 154.074 252.033C188.704 242.308 209.799 224.801 226.814 194.257C240.985 166.583 242.584 135.302 231.863 105.74C229.089 98.0888 220.641 81.3649 215.082 75.7487L218.243 112.226C224.019 125.791 224.342 148.272 221.761 163.512C218.238 184.326 201.481 209.004 184.868 221.319C157.9 243.273 107.897 247.237 77.1598 225.802C6.76327 179.244 21.054 77.5671 100.343 52.2313C103.507 44.3542 95.9142 49.9106 106.38 38.8683L109.511 34.9512C102.754 34.9773 86.2442 41.0901 80.7233 43.5413Z" fill="white"/>
<path fill-rule="evenodd" clip-rule="evenodd" d="M48.6708 184.382L48.6841 178.522L81.8544 148.473L81.8697 153.377L48.6708 184.382ZM48.6798 172.76L48.6724 167.603L81.8292 136.399L81.8341 142.465L48.6798 172.76ZM48.681 160.917L48.6621 155.472L81.836 124.595L81.8147 130.092L48.681 160.917ZM48.721 148.764L48.6506 143.744L81.825 112.189L81.813 118.534L48.721 148.764ZM48.6689 137.052L48.718 130.335L81.8547 100.328L81.8544 106.289L48.6689 137.052ZM48.6702 124.825L48.6813 119.104L81.8654 88.1793L81.7984 94.7751L48.6702 124.825ZM48.6708 113.022L48.6612 108.446L81.8568 76.4299L81.8648 82.3755L48.6708 113.022ZM81.8846 160.248L81.9013 165.751L52.6601 193.201L55.1595 196.89L81.8512 172.221L81.8959 177.751L58.1208 201.957L60.1717 204.337L81.8496 184.572L81.8773 189.336L63.9789 207.693L66.3174 209.964C72.2237 205.247 75.9139 200.253 81.843 195.416L81.8724 201.986L70.4364 212.604L73.9732 215.334L81.8737 207.901L81.8007 213.844C80.4199 215.413 79.077 216.635 77.1914 217.507C78.3771 219.648 84.3578 222.933 86.7124 223.269L86.3108 66.2275L44.4989 109.189C44.0854 112.814 44.8231 145.131 44.8264 151.828C44.8295 158.392 44.4227 164.669 44.5506 170.404C44.7173 177.878 45.7926 184.434 49.8682 189.51L81.8846 160.248Z" fill="white"/>
</svg>
